<?xml version="1.0" standalone="no"?>
<!DOCTYPE svg PUBLIC "-//W3C//DTD SVG 20010904//EN"
 "http://www.w3.org/TR/2001/REC-SVG-20010904/DTD/svg10.dtd">
<svg version="1.0" xmlns="http://www.w3.org/2000/svg"
 width="720.000000pt" height="720.000000pt" viewBox="0 0 720.000000 720.000000"
 preserveAspectRatio="xMidYMid meet">

<g transform="translate(0.000000,720.000000) scale(0.100000,-0.100000)"
fill="#000000" stroke="none">
<path d="M3375 7194 c-254 -21 -454 -53 -680 -111 -1253 -320 -2258 -1325
-2578 -2578 -85 -332 -111 -547 -111 -905 0 -277 14 -441 55 -660 129 -674
436 -1285 892 -1775 612 -659 1377 -1043 2282 -1147 142 -16 588 -16 730 0
801 92 1503 409 2070 935 658 611 1042 1374 1147 2282 19 162 16 607 -5 775
-111 881 -489 1626 -1132 2229 -552 517 -1261 845 -2030 937 -125 15 -535 26
-640 18z m-640 -1118 c526 -131 923 -585 1047 -1198 20 -97 23 -144 23 -328 0
-185 -3 -231 -23 -330 -27 -130 -71 -276 -113 -367 l-28 -63 -1180 0 -1181 0
-19 38 c-26 52 -77 199 -100 290 -67 265 -68 601 -1 861 92 361 291 673 560
875 162 122 353 207 530 236 41 6 82 13 90 15 8 2 78 2 155 0 105 -3 165 -10
240 -29z m2223 10 c250 -54 454 -168 647 -361 128 -127 216 -253 299 -425 113
-235 156 -421 163 -700 8 -272 -27 -476 -119 -707 l-41 -103 -1073 0 c-591 0
-1074 2 -1074 4 0 2 15 36 34 77 220 480 190 1092 -76 1562 -27 48 -48 94 -45
101 13 32 166 203 238 264 190 161 386 254 629 298 95 17 319 12 418 -10z
m-798 -2561 c402 -62 838 -223 1315 -485 235 -128 380 -217 664 -404 l245
-161 -46 -6 c-229 -33 -773 -69 -1148 -76 -1100 -20 -1987 153 -2820 549 -159
75 -390 199 -390 208 0 3 33 12 73 18 113 20 359 84 637 167 425 127 650 180
870 204 124 14 475 6 600 -14z m-1933 -629 c7 -6 43 -106 81 -221 347 -1052
734 -1528 1384 -1700 200 -53 486 -80 719 -69 l136 7 -47 101 c-96 205 -132
353 -133 546 -2 213 39 367 161 604 l66 129 81 -7 c44 -3 95 -6 113 -6 l33 0
-21 -30 c-42 -60 -148 -278 -179 -371 -45 -136 -61 -234 -61 -374 0 -203 40
-368 140 -581 l48 -102 -37 -6 c-203 -32 -630 -33 -811 -2 -648 112 -1121 457
-1472 1071 -148 260 -301 645 -388 980 -17 66 -34 128 -36 138 -4 13 22 3 103
-39 59 -32 113 -62 120 -68z m353 -1452 c59 -76 301 -305 389 -368 512 -365
1106 -491 1877 -395 l90 11 -42 84 c-101 202 -170 427 -181 593 l-6 94 29 -7
c16 -4 89 -25 162 -46 289 -87 554 -196 810 -333 l153 -82 -33 -28 c-53 -46
-215 -160 -319 -225 -449 -283 -949 -459 -1494 -529 -197 -25 -634 -25 -830 0
-665 86 -1262 329 -1778 725 -91 70 -98 77 -81 89 40 29 405 204 524 251 209
83 618 209 680 211 8 0 31 -20 50 -45z"/>
<path d="M2380 5137 c-226 -77 -381 -311 -355 -537 43 -375 436 -585 767 -408
72 38 176 146 211 219 145 299 -5 640 -322 733 -82 24 -220 21 -301 -7z"/>
<path d="M4648 5141 c-160 -51 -290 -182 -339 -340 -27 -89 -27 -223 0 -311
114 -367 587 -482 860 -209 279 279 150 763 -230 864 -76 21 -221 18 -291 -4z"/>
</g>
</svg>
